<svg width="25" height="16" viewBox="0 0 25 16" fill="none" xmlns="http://www.w3.org/2000/svg">
<path d="M0.12 16V14.1C0.433333 13.6067 0.793333 13.09 1.2 12.55C1.61333 12.0033 2.03667 11.47 2.47 10.95C2.90333 10.4233 3.32667 9.92667 3.74 9.46C4.15333 8.99333 4.51667 8.59 4.83 8.25C5.19 7.86333 5.49667 7.53667 5.75 7.27C6.00333 7.00333 6.20667 6.75667 6.36 6.53C6.51333 6.30333 6.62333 6.07667 6.69 5.85C6.76333 5.61667 6.8 5.34333 6.8 5.03C6.8 4.78333 6.75667 4.54 6.67 4.3C6.59 4.05333 6.47333 3.83333 6.32 3.64C6.16667 3.44667 5.98 3.29333 5.76 3.18C5.54 3.06 5.29667 3 5.03 3C4.48333 3 4.00333 3.18333 3.59 3.55C3.17667 3.91667 2.81 4.41333 2.49 5.04L0.16 4.17C0.353333 3.66333 0.6 3.20333 0.9 2.79C1.20667 2.37667 1.57 2.02667 1.99 1.74C2.41 1.44667 2.88333 1.22333 3.41 1.07C3.94333 0.909999 4.53333 0.829999 5.18 0.829999C5.94 0.829999 6.61667 0.956666 7.21 1.21C7.80333 1.45667 8.30333 1.78333 8.71 2.19C9.12333 2.59667 9.43667 3.06 9.65 3.58C9.86333 4.09333 9.97 4.61333 9.97 5.14C9.97 5.60667 9.89667 6.03667 9.75 6.43C9.60333 6.82333 9.40667 7.20333 9.16 7.57C8.91333 7.93 8.63333 8.29 8.32 8.65C8.00667 9.01 7.68333 9.39 7.35 9.79C7.01667 10.19 6.67 10.5967 6.31 11.01C5.95667 11.4233 5.61667 11.8167 5.29 12.19C4.97 12.5633 4.67667 12.9067 4.41 13.22C4.15 13.5333 3.94667 13.7933 3.8 14H10.22V16H0.12ZM13.2278 16V3.37L12.8978 0.999999L16.7378 0.799999V5.65L20.6478 0.999999H24.3278L19.3378 7L17.0078 8L19.2378 8.84L24.5378 16H20.7378L16.7378 10.6V16H13.2278Z" fill="#4E4CE8"/>
</svg>
